<svg width="24" height="24" viewBox="0 0 24 24" fill="none" xmlns="http://www.w3.org/2000/svg">
<g id="ic/24/social/instagram">
<path id="Combined Shape" fill-rule="evenodd" clip-rule="evenodd" d="M16.0327 3H7.96729C5.22852 3 3 5.22839 3 7.96741V16.0326C3 18.7717 5.22852 21 7.96729 21H16.0327C18.7715 21 21 18.7716 21 16.0326V7.96741C21 5.22839 18.7715 3 16.0327 3ZM20 16.3579C20 18.3662 18.3662 20 16.3579 20H7.64209C5.63379 20.0001 4 18.3662 4 16.3579V7.64209C4 5.63391 5.63379 4 7.64209 4H16.3579C18.3662 4 20 5.63391 20 7.64209V16.3579ZM7.36182 12.0002C7.36182 9.44275 9.44238 7.36206 12 7.36206C14.5576 7.36206 16.6382 9.44275 16.6382 12.0002C16.6382 14.5576 14.5576 16.6382 12 16.6382C9.44238 16.6382 7.36182 14.5576 7.36182 12.0002ZM16.4351 5.83411C16.5835 5.68506 16.79 5.59998 17 5.59998C17.2109 5.59998 17.4175 5.68506 17.5659 5.83411C17.6362 5.90393 17.6924 5.98669 17.7319 6.07666C17.7764 6.17786 17.8003 6.28833 17.8003 6.40002C17.8003 6.61011 17.7153 6.81665 17.5659 6.96582C17.417 7.11414 17.2109 7.19995 17 7.19995C16.79 7.19995 16.5835 7.11414 16.4351 6.96582C16.3467 6.87732 16.2808 6.76868 16.2412 6.65112C16.2144 6.57043 16.2002 6.4856 16.2002 6.40002C16.2002 6.18909 16.2861 5.98254 16.4351 5.83411Z" fill="white"/>
<mask id="mask0" mask-type="alpha" maskUnits="userSpaceOnUse" x="7" y="5" width="11" height="12">
<path id="Combined Shape_2" fill-rule="evenodd" clip-rule="evenodd" d="M16.4349 5.83416C16.5833 5.68507 16.7898 5.59998 17 5.59998C17.2109 5.59998 17.4175 5.68507 17.5658 5.83416C17.7149 5.98252 17.8 6.18907 17.8 6.39998C17.8 6.61016 17.7149 6.8167 17.5658 6.96579C17.4167 7.11416 17.2109 7.19998 17 7.19998C16.7898 7.19998 16.5833 7.11416 16.4349 6.96579C16.2858 6.8167 16.2 6.61023 16.2 6.39998C16.2 6.18907 16.2857 5.98252 16.4349 5.83416ZM12 7.36204C9.44245 7.36204 7.36182 9.44268 7.36182 12.0002C7.36182 14.5576 9.44245 16.6381 12 16.6381C14.5575 16.6381 16.6381 14.5576 16.6381 12.0002C16.6381 9.44268 14.5575 7.36204 12 7.36204ZM12 15.8397C9.88274 15.8397 8.16003 14.1173 8.16003 12C8.16003 9.88255 9.88261 8.15998 12 8.15998C14.1175 8.15998 15.84 9.88255 15.84 12C15.84 14.1173 14.1173 15.8397 12 15.8397Z" fill="white"/>
</mask>
<g mask="url(#mask0)">
</g>
</g>
</svg>
