<svg width="7" height="14" viewBox="0 0 7 14" fill="none" xmlns="http://www.w3.org/2000/svg">
<g id="world">
<path id="Shape" fill-rule="evenodd" clip-rule="evenodd" d="M3.11182 4.42651C2.65088 2.21118 1.26318 0.545288 0.420898 0.195801V4.53882C1.26318 4.52844 2.37109 4.48547 3.11182 4.42651ZM6.02539 3.96301C5.87207 4.01013 5.25 4.18372 4.01953 4.32935C3.7417 2.85291 3.24072 1.59473 2.5874 0.686401C4.08545 1.33569 5.30371 2.50452 6.02539 3.96301ZM1.99219 5.46997C2.43945 5.44971 2.87354 5.42419 3.22705 5.3949C3.2915 5.91309 3.30811 6.44946 3.30811 7.0011C3.30811 7.19409 3.30615 7.38538 3.30127 7.57483C3.29785 7.71472 3.29248 7.85364 3.28516 7.99133C3.26611 8.35168 3.2334 8.7041 3.17822 9.04602C2.40674 8.98364 1.26318 8.93872 0.420898 8.92871V5.51733C0.883301 5.51135 1.44775 5.49463 1.99219 5.46997ZM0.420898 9.90723V13.8068C1.26318 13.4808 2.50977 12.0077 3.00977 10.0125C2.88916 10.0032 2.75977 9.99438 2.62451 9.98608C2.32617 9.96765 1.99756 9.95178 1.66357 9.93896C1.24268 9.92297 0.812012 9.91199 0.420898 9.90723ZM2.5874 13.3163C3.17627 12.4978 3.64551 11.3992 3.93457 10.1088C4.90283 10.2202 5.51221 10.3499 5.81982 10.4274C5.07959 11.7118 3.94629 12.7245 2.5874 13.3163ZM4.16797 5.29675C4.31543 6.57568 4.2959 7.86853 4.10889 9.14233C5.30371 9.28235 5.9834 9.45142 6.25391 9.53027C6.56543 8.74658 6.74219 7.89465 6.74219 7.0011C6.7417 6.11792 6.57031 5.24329 6.23682 4.42542L6.39502 4.8717C6.35059 4.88745 5.68066 5.11511 4.16797 5.29675Z" fill="white"/>
</g>
</svg>
