<svg width="24" height="24" viewBox="0 0 24 24" fill="none" xmlns="http://www.w3.org/2000/svg">
<g id="ic/24/social/twitter">
<path id="Shape" fill-rule="evenodd" clip-rule="evenodd" d="M20.7251 6.095C20.7901 6.11062 20.8511 6.14187 20.897 6.18863C20.9883 6.28238 21.0191 6.43863 20.9888 6.56363C20.7134 7.46975 20.1636 8.126 19.4917 8.46975V8.56338C19.4917 14.5941 15.0918 19.5 9.71486 19.5C6.69045 19.5 4.24611 18.9688 3.14601 18.0627C3.02394 17.9377 2.96291 17.7814 3.02394 17.5939C3.05519 17.5141 3.11037 17.4424 3.18117 17.3914C3.24904 17.3426 3.33107 17.3127 3.42092 17.3127C5.22365 17.2814 6.38478 16.844 7.27053 16.3128C5.55959 16.094 4.49025 15.2504 3.94045 13.6568C3.87941 13.5005 3.94045 13.3443 4.06252 13.2505C4.13381 13.1958 4.22609 13.173 4.31447 13.1759C4.37795 13.178 4.43947 13.1933 4.49025 13.2193C4.8135 13.4395 5.13674 13.5356 5.49172 13.573C5.64016 13.5888 5.79445 13.5943 5.95705 13.5943C4.79592 12.8756 3.72658 11.6881 3.29885 10.2195C3.28176 10.1321 3.29348 10.0349 3.32863 9.95535C3.35598 9.89273 3.39797 9.84097 3.45168 9.81338C3.60451 9.71963 3.75734 9.75088 3.87941 9.84463C4.21535 10.1258 4.58205 10.3133 5.13185 10.407C3.94045 9.15713 3.20705 7.3135 4.24611 5.2825L4.42922 4.9075L4.73488 5.22C6.62892 7.251 8.37062 8.1885 11.5479 8.81338V8.68838C11.5479 6.40738 13.2896 4.5325 15.4585 4.50125C16.314 4.50125 17.5054 5.12625 17.9946 5.4075C18.0064 5.4075 18.0181 5.41202 18.0279 5.41592C18.044 5.42227 18.0557 5.42679 18.0557 5.4075C18.6665 5.22 19.3999 4.9075 20.2554 4.5325C20.3101 4.50454 20.3706 4.49539 20.4292 4.5021C20.502 4.5104 20.5713 4.54312 20.6221 4.595C20.6807 4.6553 20.7149 4.72854 20.7154 4.81485C20.7154 4.86258 20.7051 4.91433 20.6831 4.97C20.5303 5.4075 20.2857 5.87625 19.9195 6.31363L20.5303 6.09488C20.5913 6.07925 20.6602 6.07925 20.7251 6.095ZM18.7354 8.23782L18.9131 8.1774C19.4761 7.96621 19.8023 7.51346 20.0098 7.12124L18.854 7.51358C18.7056 7.57388 18.5279 7.51358 18.4688 7.3627C18.4092 7.2117 18.439 7.03067 18.5576 6.94009C19.0318 6.54776 19.3872 6.12527 19.6543 5.67264C19.0615 5.91397 18.5279 6.12527 18.083 6.27615C17.9053 6.33645 17.7276 6.3063 17.5498 6.21585C17.2237 6.0347 16.0972 5.40091 15.4155 5.43118C13.6372 5.46133 12.2144 7.00052 12.2144 8.87161V9.71658L11.8589 9.65628C8.59865 9.05264 6.79055 8.1774 4.89357 6.27615C4.00441 8.56973 5.84182 10.1693 6.46437 10.622L7.2051 11.1652H6.28664C5.69387 11.1652 5.04152 11.1049 4.44875 10.8333C5.10109 12.2215 6.43459 13.2476 7.56105 13.5796L7.47219 14.1831C7.34816 14.1831 7.22463 14.1831 7.1006 14.1874C6.98732 14.1913 6.87404 14.1989 6.76076 14.2133C6.1382 14.2436 5.57521 14.2436 5.04152 14.0624C5.6343 15.2093 6.67189 15.6922 8.36135 15.6922H9.25051L8.5093 16.2354C7.59084 16.9596 6.40529 17.6236 4.35988 17.7746C5.33791 18.2574 7.14601 18.7101 9.84328 18.7101C14.4644 18.7101 18.7354 13.9991 18.7354 8.75088V8.23782Z" fill="white"/>
<mask id="mask0" mask-type="alpha" maskUnits="userSpaceOnUse" x="3" y="4" width="18" height="16">
<path id="Shape_2" fill-rule="evenodd" clip-rule="evenodd" d="M20.7251 6.095C20.7901 6.11062 20.8511 6.14187 20.897 6.18863C20.9883 6.28238 21.0191 6.43863 20.9888 6.56363C20.7134 7.46975 20.1636 8.126 19.4917 8.46975V8.56338C19.4917 14.5941 15.0918 19.5 9.71486 19.5C6.69045 19.5 4.24611 18.9688 3.14601 18.0627C3.02394 17.9377 2.96291 17.7814 3.02394 17.5939C3.05519 17.5141 3.11037 17.4424 3.18117 17.3914C3.24904 17.3426 3.33107 17.3127 3.42092 17.3127C5.22365 17.2814 6.38478 16.844 7.27053 16.3128C5.55959 16.094 4.49025 15.2504 3.94045 13.6568C3.87941 13.5005 3.94045 13.3443 4.06252 13.2505C4.13381 13.1958 4.22609 13.173 4.31447 13.1759C4.37795 13.178 4.43947 13.1933 4.49025 13.2193C4.8135 13.4395 5.13674 13.5356 5.49172 13.573C5.64016 13.5888 5.79445 13.5943 5.95705 13.5943C4.79592 12.8756 3.72658 11.6881 3.29885 10.2195C3.28176 10.1321 3.29348 10.0349 3.32863 9.95535C3.35598 9.89273 3.39797 9.84097 3.45168 9.81338C3.60451 9.71963 3.75734 9.75088 3.87941 9.84463C4.21535 10.1258 4.58205 10.3133 5.13185 10.407C3.94045 9.15713 3.20705 7.3135 4.24611 5.2825L4.42922 4.9075L4.73488 5.22C6.62892 7.251 8.37062 8.1885 11.5479 8.81338V8.68838C11.5479 6.40738 13.2896 4.5325 15.4585 4.50125C16.314 4.50125 17.5054 5.12625 17.9946 5.4075C18.0064 5.4075 18.0181 5.41202 18.0279 5.41592C18.044 5.42227 18.0557 5.42679 18.0557 5.4075C18.6665 5.22 19.3999 4.9075 20.2554 4.5325C20.3101 4.50454 20.3706 4.49539 20.4292 4.5021C20.502 4.5104 20.5713 4.54312 20.6221 4.595C20.6807 4.6553 20.7149 4.72854 20.7154 4.81485C20.7154 4.86258 20.7051 4.91433 20.6831 4.97C20.5303 5.4075 20.2857 5.87625 19.9195 6.31363L20.5303 6.09488C20.5913 6.07925 20.6602 6.07925 20.7251 6.095ZM18.7354 8.23782L18.9131 8.1774C19.4761 7.96621 19.8023 7.51346 20.0098 7.12124L18.854 7.51358C18.7056 7.57388 18.5279 7.51358 18.4688 7.3627C18.4092 7.2117 18.439 7.03067 18.5576 6.94009C19.0318 6.54776 19.3872 6.12527 19.6543 5.67264C19.0615 5.91397 18.5279 6.12527 18.083 6.27615C17.9053 6.33645 17.7276 6.3063 17.5498 6.21585C17.2237 6.0347 16.0972 5.40091 15.4155 5.43118C13.6372 5.46133 12.2144 7.00052 12.2144 8.87161V9.71658L11.8589 9.65628C8.59865 9.05264 6.79055 8.1774 4.89357 6.27615C4.00441 8.56973 5.84182 10.1693 6.46437 10.622L7.2051 11.1652H6.28664C5.69387 11.1652 5.04152 11.1049 4.44875 10.8333C5.10109 12.2215 6.43459 13.2476 7.56105 13.5796L7.47219 14.1831C7.34816 14.1831 7.22463 14.1831 7.1006 14.1874C6.98732 14.1913 6.87404 14.1989 6.76076 14.2133C6.1382 14.2436 5.57521 14.2436 5.04152 14.0624C5.6343 15.2093 6.67189 15.6922 8.36135 15.6922H9.25051L8.5093 16.2354C7.59084 16.9596 6.40529 17.6236 4.35988 17.7746C5.33791 18.2574 7.14601 18.7101 9.84328 18.7101C14.4644 18.7101 18.7354 13.9991 18.7354 8.75088V8.23782Z" fill="white"/>
</mask>
<g mask="url(#mask0)">
</g>
</g>
</svg>
