<svg width="7" height="14" viewBox="0 0 7 14" fill="none" xmlns="http://www.w3.org/2000/svg">
<g id="world">
<path id="Shape" fill-rule="evenodd" clip-rule="evenodd" d="M3.11182 4.42651C2.65088 2.21124 1.26318 0.545288 0.420898 0.195801V4.53882C0.846191 4.53357 1.33887 4.52002 1.81787 4.50031C2.28809 4.48096 2.74512 4.45569 3.11182 4.42651ZM5.6377 4.06366C5.30908 4.13855 4.78076 4.23926 4.01953 4.32941C3.7417 2.85291 3.24072 1.59479 2.5874 0.686462C4.08545 1.33575 5.30371 2.50458 6.02539 3.96307C5.9668 3.98108 5.84033 4.01746 5.6377 4.06366ZM0.420898 5.51733C1.26318 5.50641 2.44336 5.46008 3.22705 5.39496C3.26172 5.67175 3.28223 5.9538 3.29443 6.24054C3.30469 6.49054 3.30811 6.7442 3.30811 7.00116C3.30811 7.70959 3.28271 8.39679 3.17822 9.04602C2.40674 8.9837 1.26318 8.93884 0.420898 8.92871V5.51733ZM0.420898 9.90723V13.8068C1.26318 13.4808 2.50977 12.0077 3.00977 10.0125C2.60059 9.98102 2.09424 9.95465 1.57861 9.93585L1.36035 9.92834L1.11816 9.9212C0.878906 9.91467 0.643555 9.90991 0.420898 9.90723ZM2.5874 13.3163C3.17627 12.4978 3.64551 11.3992 3.93457 10.1088C4.90283 10.2202 5.51221 10.3499 5.81982 10.4274C5.07959 11.7117 3.94629 12.7245 2.5874 13.3163ZM4.16797 5.29669C4.31543 6.57568 4.2959 7.86847 4.10889 9.14233C5.30371 9.28241 5.9834 9.45135 6.25391 9.53027C6.56543 8.74652 6.74219 7.89459 6.74219 7.00116C6.7417 6.11798 6.57031 5.24329 6.23682 4.42542L6.39502 4.8717C6.35059 4.88745 5.68066 5.11511 4.16797 5.29669Z" fill="white"/>
</g>
</svg>
